<mxfile host="app.diagrams.net" modified="2023-12-04T16:22:14.354Z" agent="Mozilla/5.0 (Windows NT 10.0; Win64; x64) AppleWebKit/537.36 (KHTML, like Gecko) Chrome/119.0.0.0 Safari/537.36" version="22.1.5" etag="F0NwOhYopz58HA-BqPLw" type="github">
  <diagram name="Страница — 1" id="C_5wFYsdpfEev6hk8fKc">
    <mxGraphModel>
      <root>
        <mxCell id="0" />
        <mxCell id="1" parent="0" />
      </root>
    </mxGraphModel>
  </diagram>
</mxfile>
